<mxfile host="app.diagrams.net" agent="Mozilla/5.0 (Windows NT 10.0; Win64; x64; rv:130.0) Gecko/20100101 Firefox/130.0" version="24.7.12">
  <diagram name="Página-1" id="ah83oopqMQ0ncV4CgpI1">
    <mxGraphModel dx="1195" dy="645" grid="1" gridSize="10" guides="1" tooltips="1" connect="1" arrows="1" fold="1" page="1" pageScale="1" pageWidth="1100" pageHeight="850" math="0" shadow="0">
      <root>
        <mxCell id="0" />
        <mxCell id="1" parent="0" />
        <mxCell id="NH0lVlh0F14EjiSKOWJ5-14" style="edgeStyle=orthogonalEdgeStyle;rounded=0;orthogonalLoop=1;jettySize=auto;html=1;endArrow=none;endFill=0;" edge="1" parent="1" source="NH0lVlh0F14EjiSKOWJ5-1" target="NH0lVlh0F14EjiSKOWJ5-12">
          <mxGeometry relative="1" as="geometry">
            <Array as="points" />
          </mxGeometry>
        </mxCell>
        <mxCell id="NH0lVlh0F14EjiSKOWJ5-1" value="&lt;div&gt;Usuario&lt;/div&gt;&lt;div&gt;&lt;br&gt;&lt;/div&gt;" style="shape=umlActor;verticalLabelPosition=bottom;verticalAlign=top;html=1;outlineConnect=0;" vertex="1" parent="1">
          <mxGeometry x="140" y="115" width="40" height="80" as="geometry" />
        </mxCell>
        <mxCell id="NH0lVlh0F14EjiSKOWJ5-22" style="edgeStyle=orthogonalEdgeStyle;rounded=0;orthogonalLoop=1;jettySize=auto;html=1;dashed=1;" edge="1" parent="1" source="NH0lVlh0F14EjiSKOWJ5-2" target="NH0lVlh0F14EjiSKOWJ5-12">
          <mxGeometry relative="1" as="geometry">
            <Array as="points">
              <mxPoint x="410" y="85" />
            </Array>
          </mxGeometry>
        </mxCell>
        <mxCell id="NH0lVlh0F14EjiSKOWJ5-2" value="Criação do QR Code" style="ellipse;whiteSpace=wrap;html=1;" vertex="1" parent="1">
          <mxGeometry x="550" y="50" width="120" height="70" as="geometry" />
        </mxCell>
        <mxCell id="NH0lVlh0F14EjiSKOWJ5-15" style="edgeStyle=orthogonalEdgeStyle;rounded=0;orthogonalLoop=1;jettySize=auto;html=1;endArrow=none;endFill=0;" edge="1" parent="1" source="NH0lVlh0F14EjiSKOWJ5-9" target="NH0lVlh0F14EjiSKOWJ5-10">
          <mxGeometry relative="1" as="geometry" />
        </mxCell>
        <mxCell id="NH0lVlh0F14EjiSKOWJ5-9" value="Sistema" style="shape=umlActor;verticalLabelPosition=bottom;verticalAlign=top;html=1;outlineConnect=0;" vertex="1" parent="1">
          <mxGeometry x="140" y="315" width="40" height="80" as="geometry" />
        </mxCell>
        <mxCell id="NH0lVlh0F14EjiSKOWJ5-10" value="Leitura do QR Code" style="ellipse;whiteSpace=wrap;html=1;" vertex="1" parent="1">
          <mxGeometry x="350" y="320" width="120" height="70" as="geometry" />
        </mxCell>
        <mxCell id="NH0lVlh0F14EjiSKOWJ5-12" value="Inserção do dados da bateria" style="ellipse;whiteSpace=wrap;html=1;" vertex="1" parent="1">
          <mxGeometry x="350" y="120" width="120" height="70" as="geometry" />
        </mxCell>
        <mxCell id="NH0lVlh0F14EjiSKOWJ5-38" style="edgeStyle=orthogonalEdgeStyle;rounded=0;orthogonalLoop=1;jettySize=auto;html=1;entryX=1;entryY=0.5;entryDx=0;entryDy=0;dashed=1;" edge="1" parent="1" source="NH0lVlh0F14EjiSKOWJ5-37" target="NH0lVlh0F14EjiSKOWJ5-10">
          <mxGeometry relative="1" as="geometry" />
        </mxCell>
        <mxCell id="NH0lVlh0F14EjiSKOWJ5-37" value="Alocação das Baterias" style="ellipse;whiteSpace=wrap;html=1;" vertex="1" parent="1">
          <mxGeometry x="550" y="320" width="120" height="70" as="geometry" />
        </mxCell>
        <mxCell id="NH0lVlh0F14EjiSKOWJ5-45" style="edgeStyle=orthogonalEdgeStyle;rounded=0;orthogonalLoop=1;jettySize=auto;html=1;endArrow=classic;endFill=1;dashed=1;" edge="1" parent="1" source="NH0lVlh0F14EjiSKOWJ5-43" target="NH0lVlh0F14EjiSKOWJ5-12">
          <mxGeometry relative="1" as="geometry">
            <Array as="points">
              <mxPoint x="410" y="225" />
            </Array>
          </mxGeometry>
        </mxCell>
        <mxCell id="NH0lVlh0F14EjiSKOWJ5-43" value="Salvar dados no Banco de Dados" style="ellipse;whiteSpace=wrap;html=1;" vertex="1" parent="1">
          <mxGeometry x="790" y="190" width="120" height="70" as="geometry" />
        </mxCell>
      </root>
    </mxGraphModel>
  </diagram>
</mxfile>
